# xmcd CD database file
#
# Track frame offsets:
#	180
#	16668
#	39643
#	60084
#	75733
#	93744
#	111075
#	132872
#	145716
#	156809
#	169764
#	187866
#	199503
#
# Disc length: 2928 seconds
#
# Revision: 0
# Processed by: cddbd v1.5.2PL0 Copyright (c) Steve Scherf et al.
# Submitted via: CDex 1.70beta2
#
DISCID=990b6e0d
DTITLE=Basiuk, Bo (97) - Cdn. - ON - Blues - I Got Mine 
DYEAR=1997
DGENRE=Blues
TTITLE0=I Got Mine
TTITLE1=Betty and Dupree
TTITLE2=Worried Man blues
TTITLE3=Tell Me Man
TTITLE4=John Hardy
TTITLE5=Step It Up and Go
TTITLE6=Medley - Let It Shine Me - I Saw the Light
TTITLE7=Truckin' My Blues away
TTITLE8=buddy Bolden's Blues
TTITLE9=Pistol Slapper4 blues
TTITLE10=They're Red Hot
TTITLE11=Abiline
TTITLE12=Midnight Special
EXTD=YEAR: 1997
EXTT0=
EXTT1=
EXTT2=
EXTT3=
EXTT4=
EXTT5=
EXTT6=
EXTT7=
EXTT8=
EXTT9=
EXTT10=
EXTT11=
EXTT12=
PLAYORDER=
